<svg width="24" height="24" viewBox="0 0 24 24" fill="none" xmlns="http://www.w3.org/2000/svg">
<path d="M18.7998 9.91003C17.6698 9.91003 16.6598 10.46 16.0298 11.3C15.3998 10.46 14.3898 9.91003 13.2598 9.91003C11.3498 9.91003 9.7998 11.47 9.7998 13.39C9.7998 14.13 9.9198 14.82 10.1198 15.45C11.0998 18.56 14.1398 20.43 15.6398 20.94C15.8498 21.01 16.1998 21.01 16.4098 20.94C17.9098 20.43 20.9498 18.57 21.9298 15.45C22.1398 14.81 22.2498 14.13 22.2498 13.39C22.2598 11.47 20.7098 9.91003 18.7998 9.91003Z" fill="#8769F6"/>
<path d="M15.5498 3.59998C18.0725 3.59998 20.1374 5.60353 20.2441 8.13416C18.7984 7.81628 17.2478 8.14482 16.0596 8.99353L16.0557 8.99548C16.0068 9.03095 15.9498 9.02286 15.9229 9.00232L15.916 8.99646L15.75 8.88025C14.9075 8.31147 13.9073 8.00044 12.8604 8.00037C10.0014 8.00037 7.67969 10.337 7.67969 13.2103C7.67977 15.3851 8.43976 17.1551 9.39746 18.5238C8.25766 17.9139 6.92592 16.9995 5.73828 15.7855C3.94006 13.9474 2.50007 11.4586 2.5 8.34021C2.5 5.71387 4.60861 3.6 7.20996 3.59998C8.75558 3.59998 10.1198 4.34029 10.9795 5.48962L11.3779 6.02185L11.7793 5.49158C12.6501 4.3397 14.0153 3.60004 15.5498 3.59998Z" fill="#8769F6" stroke="#8769F6"/>
</svg>
