<svg width="24" height="24" viewBox="0 0 24 24" fill="none" xmlns="http://www.w3.org/2000/svg">
<path d="M9.45505 4.05011C10.786 2.87348 12.779 2.85306 14.1338 4.00226L22.0009 10.6761C22.5914 11.1771 22.7757 12.0102 22.4511 12.7132C22.0339 13.6163 20.9404 13.9804 20.0654 13.5071L19.9209 13.428L19.4492 18.7415C19.2857 20.5857 17.741 21.9993 15.8896 21.9993H8.1113C6.25991 21.9993 4.71525 20.5857 4.55173 18.7415L4.08005 13.428L3.95017 13.4993C3.06735 13.977 1.96393 13.6098 1.54294 12.6985C1.22091 12.0012 1.39516 11.1751 1.97068 10.6663L9.45505 4.05011ZM12 10.9993C10.3435 10.9996 9.00021 12.3428 8.99997 13.9993C8.99997 15.656 10.3433 16.9991 12 16.9993C13.6568 16.9993 15 15.6562 15 13.9993C14.9997 12.3427 13.6567 10.9993 12 10.9993Z" fill="#8769F6"/>
</svg>
