<svg width="24" height="24" viewBox="0 0 24 24" fill="none" xmlns="http://www.w3.org/2000/svg">
<path d="M10.0703 2.82009L3.14027 8.37008C2.36027 8.99008 1.86027 10.3001 2.03027 11.2801L3.36027 19.2401C3.60027 20.6601 4.96026 21.8101 6.40026 21.8101H17.6003C19.0303 21.8101 20.4003 20.6501 20.6403 19.2401L21.9703 11.2801C22.1303 10.3001 21.6303 8.99008 20.8603 8.37008L13.9303 2.8301C12.8603 1.9701 11.1303 1.97009 10.0703 2.82009Z" stroke="#CDCFD4" stroke-width="1.5" stroke-linecap="round" stroke-linejoin="round"/>
<path d="M12 15.5C13.3807 15.5 14.5 14.3807 14.5 13C14.5 11.6193 13.3807 10.5 12 10.5C10.6193 10.5 9.5 11.6193 9.5 13C9.5 14.3807 10.6193 15.5 12 15.5Z" stroke="#CDCFD4" stroke-width="1.5" stroke-linecap="round" stroke-linejoin="round"/>
</svg>
